<?xml version="1.0" encoding="UTF-8" standalone="no"?>
<svg
   xmlns:dc="http://purl.org/dc/elements/1.1/"
   xmlns:cc="http://creativecommons.org/ns#"
   xmlns:rdf="http://www.w3.org/1999/02/22-rdf-syntax-ns#"
   xmlns:svg="http://www.w3.org/2000/svg"
   xmlns="http://www.w3.org/2000/svg"
   xmlns:sodipodi="http://sodipodi.sourceforge.net/DTD/sodipodi-0.dtd"
   xmlns:inkscape="http://www.inkscape.org/namespaces/inkscape"
   id="Layer_1"
   style="enable-background:new 0 0 64 64;"
   version="1.1"
   viewBox="0 0 64 64"
   xml:space="preserve"
   sodipodi:docname="mail.svg"
   inkscape:version="0.92.4 (5da689c313, 2019-01-14)"><metadata
     id="metadata14"><rdf:RDF><cc:Work
         rdf:about=""><dc:format>image/svg+xml</dc:format><dc:type
           rdf:resource="http://purl.org/dc/dcmitype/StillImage" /><dc:title></dc:title></cc:Work></rdf:RDF></metadata><defs
     id="defs12" /><sodipodi:namedview
     pagecolor="#ffffff"
     bordercolor="#666666"
     borderopacity="1"
     objecttolerance="10"
     gridtolerance="10"
     guidetolerance="10"
     inkscape:pageopacity="0"
     inkscape:pageshadow="2"
     inkscape:window-width="1304"
     inkscape:window-height="704"
     id="namedview10"
     showgrid="false"
     inkscape:zoom="3.6875"
     inkscape:cx="-0.6779661"
     inkscape:cy="30.779661"
     inkscape:window-x="0"
     inkscape:window-y="27"
     inkscape:window-maximized="1"
     inkscape:current-layer="Icon-Envelope" /><style
     type="text/css"
     id="style2">
	.st0{fill:#134563;}
</style><g
     id="g7"><g
       id="Icon-Envelope"
       transform="translate(78.000000, 232.000000)"><path
         class="st0"
         d="M-22.5-213.2l-1.9-1.9l-17.6,17.6c-2.2,2.2-5.9,2.2-8.1,0L-67.7-215l-1.9,1.9l13.1,13.1     l-13.1,13.1l1.9,1.9l13.1-13.1l2.6,2.6c1.6,1.6,3.7,2.5,5.9,2.5s4.3-0.9,5.9-2.5l2.6-2.6l13.1,13.1l1.9-1.9l-13.1-13.1     L-22.5-213.2"
         id="Fill-3"
         style="fill:#000000" /><path
         class="st0"
         d="M-26.2-181.6h-39.5c-2.3,0-4.2-1.9-4.2-4.2v-28.2c0-2.3,1.9-4.2,4.2-4.2h39.5     c2.3,0,4.2,1.9,4.2,4.2v28.2C-22-183.5-23.9-181.6-26.2-181.6L-26.2-181.6z M-65.8-215.5c-0.8,0-1.4,0.6-1.4,1.4v28.2     c0,0.8,0.6,1.4,1.4,1.4h39.5c0.8,0,1.4-0.6,1.4-1.4v-28.2c0-0.8-0.6-1.4-1.4-1.4H-65.8L-65.8-215.5z"
         id="Fill-4"
         style="fill:#000000" /></g></g></svg>