<?xml version="1.0" encoding="UTF-8" standalone="no"?>
<!-- Generator: Adobe Illustrator 19.0.0, SVG Export Plug-In . SVG Version: 6.00 Build 0)  -->

<svg
   xmlns:dc="http://purl.org/dc/elements/1.1/"
   xmlns:cc="http://creativecommons.org/ns#"
   xmlns:rdf="http://www.w3.org/1999/02/22-rdf-syntax-ns#"
   xmlns:svg="http://www.w3.org/2000/svg"
   xmlns="http://www.w3.org/2000/svg"
   xmlns:sodipodi="http://sodipodi.sourceforge.net/DTD/sodipodi-0.dtd"
   xmlns:inkscape="http://www.inkscape.org/namespaces/inkscape"
   version="1.1"
   id="Layer_1"
   x="0px"
   y="0px"
   viewBox="0 0 513.602 513.602"
   style="enable-background:new 0 0 513.602 513.602;"
   xml:space="preserve"
   sodipodi:docname="onion.svg"
   inkscape:version="0.92.5 (2060ec1f9f, 2020-04-08)"><metadata
   id="metadata43"><rdf:RDF><cc:Work
       rdf:about=""><dc:format>image/svg+xml</dc:format><dc:type
         rdf:resource="http://purl.org/dc/dcmitype/StillImage" /><dc:title></dc:title></cc:Work></rdf:RDF></metadata><defs
   id="defs41">
	

		
	</defs><sodipodi:namedview
   pagecolor="#ffffff"
   bordercolor="#666666"
   borderopacity="1"
   objecttolerance="10"
   gridtolerance="10"
   guidetolerance="10"
   inkscape:pageopacity="0"
   inkscape:pageshadow="2"
   inkscape:window-width="1302"
   inkscape:window-height="704"
   id="namedview39"
   showgrid="false"
   inkscape:object-paths="false"
   inkscape:zoom="0.11487494"
   inkscape:cx="305.45993"
   inkscape:cy="232.09568"
   inkscape:window-x="0"
   inkscape:window-y="27"
   inkscape:window-maximized="1"
   inkscape:current-layer="Layer_1" />
<path
   d="m 421.681,355.202 c -7.2,-27.2 -33.12,-56 -59.04,-83.2 -15.84,-16 -44.64,-48 -43.2,-57.6 2.88,-4.8 4.53734,-7.78425 2.17628,-13.03983 -2.17411,-4.83944 -5.05628,-6.16017 -7.93628,-7.76017 14.4,-49.6 40.32,-89.6 54.72,-113.6 12.96,-20.8 18.72,-28.8 12.96,-40 -2.88,-6.4 -8.64,-9.6 -14.4,-8 -27.36,3.2 -54.72,25.6 -77.76,56 -8.64,-89.6 -27.36,-88 -33.12,-88 -8.64,0 -24.48,0 -31.68,86.4 -24.48,-30.4 -53.28,-52.8 -80.64,-56 -5.76,0 -11.52,3.2 -14.4,8 -5.76,12.8 0,20.8 12.96,41.6 14.4,24 40.32,64 53.28,112 -1.44,1.6 -3.24187,1.57019 -5.14878,6.68406 -1.95577,5.24494 -0.61122,9.31594 2.26878,14.11594 1.44,9.6 -27.36,41.6 -43.2,59.2 -24.48,27.2 -50.4,56 -57.6,81.6 -8.64,33.6 -2.88,64 14.4,91.2 27.36,40 82.08,65.6 153.21663,66.11186 C 330.67426,511.42572 379.921,488.002 407.281,446.402 c 17.28,-27.2 23.04,-57.6 14.4,-91.2 z M 349.7132,65.505086 C 325.91569,102.20211 294.961,152.002 283.441,198.402 c -2.88,-4.8 -5.76,-9.6 -8.64,-12.8 8.64,-38.4 48.60749,-108.023095 74.9122,-120.096914 z M 255.08621,37.345678 c 8.3207,13.791511 10.01921,53.663064 8.19479,95.456322 -1.44,4.8 -4.32,8 -5.76,12.8 -1.44,-4.8 -4.32,-9.6 -7.2,-16 -5.08884,-39.649188 -1.57142,-78.432601 4.76521,-92.256322 z M 177.26572,80.447853 C 204.62572,102.84785 230.161,145.602 238.801,184.002 c -4.32,3.2 -7.2,9.6 -10.08,14.4 -1.44,0 -1.44,-1.6 -2.88,-1.6 -10.08,-46.4 -31.29528,-87.55415 -48.57528,-116.354147 z M 384.241,425.602 c -21.6,32 -69.12,52.8 -126,52.8 -56.88,0 -105.84,-20.8 -128.88,-54.4 -12.96,-19.2 -17.28,-40 -11.52,-62.4 4.32,-17.6 28.8,-44.8 50.4,-68.8 20.16,-22.4 40.32,-43.2 47.52,-62.4 1.44,1.6 1.44,3.2 2.88,4.8 2.88,3.51463 6.75693,7.4091 14.4,7.6 5.9066,0.14753 10.75057,-2.60764 12.96,-9.2 2.88,-9.6 7.2,-19.2 10.08,-24 2.88,4.8 6.37801,14.68605 10.08,24 2.76661,6.96059 8.32152,9.19943 12.96,9.2 4.93507,6e-4 9.59642,-2.25797 12.38024,-6.2535 1.34651,-2.17707 3.45976,-4.5465 3.45976,-4.5465 7.2,19.2 27.36,40 48.96,64 21.6,22.4 46.08,49.6 50.4,67.2 5.76,22.4 1.44,43.2 -10.08,62.4 z"
   id="path2"
   inkscape:connector-curvature="0"
   sodipodi:nodetypes="cccscccccscccccscscccccccccccccccccccccccsccsccssccccc"
   style="stroke-width:1" />
<g
   id="g8">
</g>
<g
   id="g10">
</g>
<g
   id="g12">
</g>
<g
   id="g14">
</g>
<g
   id="g16">
</g>
<g
   id="g18">
</g>
<g
   id="g20">
</g>
<g
   id="g22">
</g>
<g
   id="g24">
</g>
<g
   id="g26">
</g>
<g
   id="g28">
</g>
<g
   id="g30">
</g>
<g
   id="g32">
</g>
<g
   id="g34">
</g>
<g
   id="g36">
</g>
<path
   style="color:#000000;font-style:normal;font-variant:normal;font-weight:normal;font-stretch:normal;font-size:medium;line-height:normal;font-family:sans-serif;font-variant-ligatures:normal;font-variant-position:normal;font-variant-caps:normal;font-variant-numeric:normal;font-variant-alternates:normal;font-feature-settings:normal;text-indent:0;text-align:start;text-decoration:none;text-decoration-line:none;text-decoration-style:solid;text-decoration-color:#000000;letter-spacing:normal;word-spacing:normal;text-transform:none;writing-mode:lr-tb;direction:ltr;text-orientation:mixed;dominant-baseline:auto;baseline-shift:baseline;text-anchor:start;white-space:normal;shape-padding:0;clip-rule:nonzero;display:inline;overflow:visible;visibility:visible;opacity:1;isolation:auto;mix-blend-mode:normal;color-interpolation:sRGB;color-interpolation-filters:linearRGB;solid-color:#000000;solid-opacity:1;vector-effect:none;fill-opacity:1;fill-rule:nonzero;stroke:#000000;stroke-width:26;stroke-linecap:butt;stroke-linejoin:miter;stroke-miterlimit:4;stroke-dasharray:none;stroke-dashoffset:0;stroke-opacity:1;color-rendering:auto;image-rendering:auto;shape-rendering:auto;text-rendering:auto;enable-background:accumulate"
   d="m 256.78291,222.65414 c -1.56506,-0.0178 -3.12823,0.0542 -4.68285,0.21209 -16.58269,1.6843 -32.16046,13.00304 -37.58273,28.47577 l -0.008,0.0221 -0.006,0.0221 c -1.04583,4.31407 -5.3455,10.90862 -10.64017,17.74018 -5.29466,6.83158 -11.57611,13.94416 -16.58457,19.50886 -15.48832,17.20845 -31.93583,35.42171 -36.54619,51.81335 l -0.002,0.006 -0.002,0.006 c -5.49617,21.37304 -1.82264,40.76642 9.17021,58.06918 l 0.004,0.008 0.004,0.006 c 17.42311,25.47119 52.2064,41.70847 97.32556,42.03311 45.11283,0.32458 76.46605,-14.55983 90.66882,-36.44829 14.20277,-21.88846 17.87629,-41.28368 12.38012,-62.65671 l -0.002,-0.002 c -4.60584,-17.40012 -21.06242,-35.62772 -31.76852,-46.76459 -10.70609,-11.13687 -17.30541,-18.26729 -22.75653,-25.10595 -2.72557,-3.41933 -5.16415,-6.76714 -6.96988,-9.73597 -1.80573,-2.96884 -2.96755,-5.57391 -3.17785,-7.40665 l -0.008,-0.0627 -0.024,-0.059 c -8.12345,-20.21637 -22.62039,-28.90445 -37.22676,-29.63214 -0.52166,-0.026 -1.04419,-0.042 -1.56588,-0.048 z m -0.009,0.94058 c 0.50967,0.005 1.01941,0.0196 1.52898,0.0443 14.25764,0.68778 28.36126,9.09212 36.37835,29.00507 0.26347,2.09938 1.48064,4.72648 3.29589,7.71096 1.83805,3.02196 4.2965,6.39243 7.03811,9.83189 5.48322,6.87891 12.09836,14.02415 22.80163,25.15798 10.70327,11.13384 27.04518,29.34794 31.54993,46.36512 5.43542,21.14053 1.82024,40.21091 -9.05216,57.32408 -17.21298,26.166 -48.17506,40.91946 -93.07429,40.59641 -44.8884,-0.32298 -79.34272,-16.47441 -96.54354,-41.60892 l -0.004,-0.006 c -10.8699,-17.11221 -14.48396,-36.18149 -9.04848,-57.3204 v -0.002 c 4.50473,-15.99814 20.8511,-34.22147 36.33594,-51.42606 5.01339,-5.57018 11.30887,-12.69574 16.63068,-19.56234 5.30532,-6.84533 9.64946,-13.38888 10.79694,-18.05186 l 0.002,-0.006 c 5.28445,-15.07154 20.57017,-26.1943 36.78596,-27.84134 1.52042,-0.15443 3.04871,-0.22698 4.57773,-0.21209 z"
   id="path2-3"
   inkscape:connector-curvature="0"
   sodipodi:nodetypes="ccccccsccccccsccccsscccccccccsscccsccccssccccc" /><path
   style="color:#000000;font-style:normal;font-variant:normal;font-weight:normal;font-stretch:normal;font-size:medium;line-height:normal;font-family:sans-serif;font-variant-ligatures:normal;font-variant-position:normal;font-variant-caps:normal;font-variant-numeric:normal;font-variant-alternates:normal;font-feature-settings:normal;text-indent:0;text-align:start;text-decoration:none;text-decoration-line:none;text-decoration-style:solid;text-decoration-color:#000000;letter-spacing:normal;word-spacing:normal;text-transform:none;writing-mode:lr-tb;direction:ltr;text-orientation:mixed;dominant-baseline:auto;baseline-shift:baseline;text-anchor:start;white-space:normal;shape-padding:0;clip-rule:nonzero;display:inline;overflow:visible;visibility:visible;opacity:1;isolation:auto;mix-blend-mode:normal;color-interpolation:sRGB;color-interpolation-filters:linearRGB;solid-color:#000000;solid-opacity:1;vector-effect:none;fill-opacity:1;fill-rule:nonzero;stroke:#000000;stroke-width:3;stroke-linecap:butt;stroke-linejoin:miter;stroke-miterlimit:4;stroke-dasharray:none;stroke-dashoffset:0;stroke-opacity:1;color-rendering:auto;image-rendering:auto;shape-rendering:auto;text-rendering:auto;enable-background:accumulate"
   d="m 257.11626,263.01244 c -1.34799,-0.0833 -2.69255,-0.0567 -4.01953,0.0781 -10.61589,1.0783 -20.32908,8.03544 -22.24848,13.62893 -1.91941,5.59349 -3.89909,9.24046 -6.56596,12.68161 -2.66686,3.44116 -5.93152,7.14353 -8.55859,10.0625 -8.2008,9.112 -17.39841,18.68025 -20.39258,29.32617 l -0.0156,0.0547 -0.0137,0.0547 c -3.20904,12.47959 -0.97607,24.36771 5.44726,34.47851 l 0.0449,0.0703 0.0488,0.0703 c 10.35824,15.1436 30.40617,24.14424 55.41797,24.32422 24.94488,0.17949 43.50131,-8.34581 53.70703,-23.86328 l 0.0215,-0.0332 0.0215,-0.0332 c 6.42333,-10.1108 8.65436,-21.99892 5.44531,-34.47851 l -0.004,-0.0176 -0.004,-0.0156 C 312.4999,318.26346 303.20667,308.54102 294.4559,299.35812 l -0.0332,-0.0351 -0.0332,-0.0332 c -2.54555,-2.57126 -5.96455,-6.27079 -8.68946,-9.68945 -1.36245,-1.70933 -2.55406,-3.35729 -6.0514,-11.69227 -3.49735,-8.33497 -13.09667,-14.31214 -22.53261,-14.89562 z m 5.30078,26.99805 c 6.33743,9.08995 11.26956,16.22377 18.43164,24.18164 l 0.0566,0.0644 0.0605,0.0625 c 3.5712,3.70347 7.34078,7.76991 10.29492,11.49414 2.95414,3.72423 4.98748,7.33458 5.33203,8.73828 l 0.006,0.0273 0.008,0.0254 c 1.58109,6.1487 0.50503,11.46621 -2.75781,16.95898 -5.93753,8.68529 -20.21912,15.38867 -37.98633,15.38867 -17.82807,0 -32.64213,-6.72034 -39.04101,-16.03906 -3.68337,-5.46462 -4.74219,-10.65345 -3.15039,-16.84375 l 0.006,-0.0273 0.008,-0.0254 c 0.34454,-1.40369 2.38497,-5.02706 5.35742,-8.83789 2.97245,-3.81083 6.76872,-8.0386 10.38672,-12.0586 6.97442,-7.74935 9.88811,-14.71232 18.29687,-24.48828 1.92875,-2.24235 3.70896,-3.82996 6.52274,-3.98472 2.81378,-0.15476 5.27771,1.21792 8.1681,5.36369 z"
   id="path2-3-6"
   inkscape:connector-curvature="0"
   sodipodi:nodetypes="ccccsccccccscccccccccccccscccsccccsccccssszs" /></svg>